# xmcd CD database file
#
# Track frame offsets:
#	150
#	21075
#	46767
#
# Disc length: 857 seconds
#
# Revision: 0
# Processed by: cddbd v1.5.1PL0 Copyright (c) Steve Scherf et al.
# Submitted via: CDex 1.51
#
DISCID=18035703
DTITLE=石川よしひろ - 愛情のかけら
DYEAR=1998
DGENRE=JPop
TTITLE0=愛情のかけら
TTITLE1=ENDLESS DREAM
TTITLE2=Just Only Love(Studio Live Version)
EXTD=YEAR: 1998
EXTT0=
EXTT1=
EXTT2=
PLAYORDER=
